<svg xmlns="http://www.w3.org/2000/svg" viewBox="0 0 400 280" fill="none">
  <defs>
    <linearGradient id="bg3" x1="0" y1="0" x2="400" y2="280">
      <stop offset="0%" stop-color="#FDF2F0"/>
      <stop offset="100%" stop-color="#EFF5F0"/>
    </linearGradient>
  </defs>
  <rect width="400" height="280" rx="16" fill="url(#bg3)"/>

  <text x="200" y="32" text-anchor="middle" fill="#6B5450" font-size="13" font-family="system-ui" font-weight="600" letter-spacing="1.5">DREI PERSPEKTIVEN</text>

  <rect x="30" y="48" width="340" height="48" rx="10" fill="#C4877F" opacity="0.08" stroke="#C4877F" stroke-width="1"/>
  <circle cx="58" cy="72" r="14" fill="#C4877F" opacity="0.2"/>
  <circle cx="58" cy="68" r="5" fill="#C4877F" opacity="0.4"/>
  <rect x="52" y="76" width="12" height="8" rx="4" fill="#C4877F" opacity="0.4"/>
  <text x="85" y="69" fill="#8B6B66" font-size="12" font-family="system-ui" font-weight="600">Kollegin A:</text>
  <text x="170" y="69" fill="#8B6B66" font-size="12" font-family="system-ui">„Körperpflege und Medikamente"</text>

  <rect x="30" y="106" width="340" height="48" rx="10" fill="#6B8F71" opacity="0.08" stroke="#6B8F71" stroke-width="1"/>
  <circle cx="58" cy="130" r="14" fill="#6B8F71" opacity="0.2"/>
  <circle cx="58" cy="126" r="5" fill="#6B8F71" opacity="0.4"/>
  <rect x="52" y="134" width="12" height="8" rx="4" fill="#6B8F71" opacity="0.4"/>
  <text x="85" y="127" fill="#4A6A50" font-size="12" font-family="system-ui" font-weight="600">Kollegin B:</text>
  <text x="170" y="127" fill="#4A6A50" font-size="12" font-family="system-ui">„Den ganzen Menschen sehen"</text>

  <rect x="30" y="164" width="340" height="48" rx="10" fill="#B8926E" opacity="0.08" stroke="#B8926E" stroke-width="1"/>
  <circle cx="58" cy="188" r="14" fill="#B8926E" opacity="0.2"/>
  <circle cx="58" cy="184" r="5" fill="#B8926E" opacity="0.4"/>
  <rect x="52" y="192" width="12" height="8" rx="4" fill="#B8926E" opacity="0.4"/>
  <text x="85" y="185" fill="#8B7355" font-size="12" font-family="system-ui" font-weight="600">Kollegin C:</text>
  <text x="170" y="185" fill="#8B7355" font-size="12" font-family="system-ui">„Hilfe zur Selbsthilfe"</text>

  <text x="200" y="232" text-anchor="middle" fill="#888" font-size="14" font-family="system-ui">↓</text>

  <rect x="30" y="240" width="340" height="32" rx="10" fill="#6B8F71" opacity="0.12" stroke="#6B8F71" stroke-width="1"/>
  <text x="200" y="261" text-anchor="middle" fill="#4A6A50" font-size="12" font-family="system-ui" font-weight="600">Gemeinsamer Rahmen: Ethikkodex + Pflegeleitbild</text>
</svg>