<svg xmlns="http://www.w3.org/2000/svg" viewBox="0 0 400 300" fill="none">
  <rect width="400" height="300" fill="#f8f9fa"/>
  <!-- Niere Umriss -->
  <path d="M200 40 C260 40, 310 80, 310 150 C310 220, 260 260, 200 260 C180 260, 165 240, 160 220 C155 200, 160 180, 170 170 C180 160, 180 140, 170 130 C160 120, 155 100, 160 80 C165 60, 180 40, 200 40Z" fill="#e8c4c4" stroke="#c0392b" stroke-width="2"/>
  <!-- Nierenrinde -->
  <path d="M200 55 C250 55, 295 90, 295 150 C295 210, 250 245, 200 245 C185 245, 175 230, 170 215 C165 200, 170 185, 178 177 C188 167, 188 143, 178 133 C170 125, 165 105, 170 85 C175 65, 185 55, 200 55Z" fill="#f5d5d5" stroke="#e74c3c" stroke-width="1" stroke-dasharray="4,4"/>
  <!-- Nierenmark (Pyramiden) -->
  <path d="M210 80 L230 140 L190 140Z" fill="#d4a0a0" stroke="#c0392b" stroke-width="1"/>
  <path d="M220 100 L250 160 L190 160Z" fill="#d4a0a0" stroke="#c0392b" stroke-width="1"/>
  <path d="M210 160 L230 220 L190 220Z" fill="#d4a0a0" stroke="#c0392b" stroke-width="1"/>
  <!-- Nierenbecken -->
  <ellipse cx="240" cy="150" rx="30" ry="45" fill="#ffeaa7" stroke="#f39c12" stroke-width="1.5"/>
  <!-- Harnleiter -->
  <path d="M240 195 C240 220, 235 240, 230 260 L230 290" stroke="#f39c12" stroke-width="4" fill="none" stroke-linecap="round"/>
  <!-- Nierenarterie -->
  <path d="M100 140 C130 140, 160 145, 200 150" stroke="#e74c3c" stroke-width="3" fill="none"/>
  <!-- Nierenvene -->
  <path d="M100 160 C130 160, 160 155, 200 150" stroke="#3498db" stroke-width="3" fill="none"/>
  <!-- Labels -->
  <text x="60" y="135" font-family="system-ui" font-size="11" fill="#e74c3c" font-weight="600">Arterie</text>
  <text x="60" y="170" font-family="system-ui" font-size="11" fill="#3498db" font-weight="600">Vene</text>
  <text x="310" y="100" font-family="system-ui" font-size="10" fill="#c0392b">Rinde</text>
  <text x="310" y="155" font-family="system-ui" font-size="10" fill="#f39c12">Becken</text>
  <text x="310" y="210" font-family="system-ui" font-size="10" fill="#c0392b">Mark</text>
  <text x="235" y="285" font-family="system-ui" font-size="10" fill="#f39c12">Harnleiter</text>
</svg>
