<svg xmlns="http://www.w3.org/2000/svg" viewBox="0 0 400 500" fill="none">
  <rect width="400" height="500" fill="#f8f9fa"/>
  <!-- Oberer Teil ausgegraut -->
  <ellipse cx="200" cy="40" rx="25" ry="12" fill="#e0e0e0" stroke="#d0d0d0" stroke-width="1"/>
  <path d="M200 52 L200 120" stroke="#d0d0d0" stroke-width="12" stroke-linecap="round"/>
  <path d="M180 120 Q140 140, 150 180 Q160 220, 200 220 Q240 220, 240 180 Q240 140, 220 120 Z" fill="#e8e8e8" stroke="#d0d0d0" stroke-width="1"/>
  <!-- Duenndarm (hervorgehoben) -->
  <path d="M230 290 Q180 300, 160 310 Q140 320, 170 330 Q200 340, 230 330 Q260 320, 240 340 Q220 360, 180 350 Q140 340, 160 360" stroke="#30D158" stroke-width="10" stroke-linecap="round" fill="none" opacity="0.3"/>
  <path d="M230 290 Q180 300, 160 310 Q140 320, 170 330 Q200 340, 230 330 Q260 320, 240 340 Q220 360, 180 350 Q140 340, 160 360" stroke="#f0c090" stroke-width="8" stroke-linecap="round" fill="none"/>
  <text x="270" y="340" font-family="system-ui" font-size="10" fill="#30D158" font-weight="700">Dünndarm</text>
  <!-- Dickdarm (hervorgehoben) -->
  <path d="M100 400 L100 280 Q100 240, 140 240" stroke="#30D158" stroke-width="16" stroke-linecap="round" fill="none" opacity="0.2"/>
  <path d="M100 400 L100 280 Q100 240, 140 240" stroke="#d4a070" stroke-width="14" stroke-linecap="round" fill="none"/>
  <path d="M140 240 L260 240" stroke="#30D158" stroke-width="16" stroke-linecap="round" fill="none" opacity="0.2"/>
  <path d="M140 240 L260 240" stroke="#d4a070" stroke-width="14" stroke-linecap="round" fill="none"/>
  <path d="M260 240 Q300 240, 300 280 L300 400" stroke="#30D158" stroke-width="16" stroke-linecap="round" fill="none" opacity="0.2"/>
  <path d="M260 240 Q300 240, 300 280 L300 400" stroke="#d4a070" stroke-width="14" stroke-linecap="round" fill="none"/>
  <path d="M300 400 Q300 430, 260 430 L140 430 Q100 430, 100 400" stroke="#d4a070" stroke-width="14" stroke-linecap="round" fill="none"/>
  <text x="40" y="320" font-family="system-ui" font-size="11" fill="#30D158" font-weight="700">Dickdarm</text>
  <!-- Rektum (hervorgehoben) -->
  <path d="M200 430 L200 470" stroke="#30D158" stroke-width="12" stroke-linecap="round" opacity="0.2"/>
  <path d="M200 430 L200 470" stroke="#c4905a" stroke-width="10" stroke-linecap="round"/>
  <text x="220" y="460" font-family="system-ui" font-size="10" fill="#30D158" font-weight="700">Rektum</text>
  <!-- Badge -->
  <rect x="10" y="10" width="140" height="22" rx="11" fill="#30D158"/>
  <text x="80" y="25" font-family="system-ui" font-size="10" fill="white" text-anchor="middle" font-weight="700">Unterer GI-Trakt</text>
  <text x="200" y="495" font-family="system-ui" font-size="10" fill="#6e6e73" text-anchor="middle">Unterer Gastrointestinaltrakt</text>
</svg>